<?xml version="1.0" ?><!DOCTYPE svg  PUBLIC '-//W3C//DTD SVG 1.1//EN'  'http://www.w3.org/Graphics/SVG/1.1/DTD/svg11.dtd'><svg viewBox="0 0 512 512" xmlns="http://www.w3.org/2000/svg" xmlns:xlink="http://www.w3.org/1999/xlink"><style>:root>svg{display:none}:root>svg:target{display:block}</style><svg viewBox="0 0 512 512" xml:space="preserve" id="instagram" xmlns="http://www.w3.org/2000/svg"><path d="M505 257c0 34.8-.7 69.7.2 104.5 1.5 61.6-37.2 109.2-86.5 130.4-19.8 8.5-40.6 13-62.1 13-67.3.1-134.7 1-202-.3-50.7-1-92.4-22.2-122.3-64-15.7-22-23.2-47-23.2-74.1v-215c0-58.5 28.5-99.4 79.1-126C110.2 14 134.1 9.1 159 9c65.3 0 130.7-.4 196 .2 50.7.4 93 19.8 124.2 60.6 17.4 22.8 25.8 49 25.8 77.8V257zm-459 0v110c0 16.4 3.8 31.8 12.3 45.7 22.3 36.5 56 54.3 97.8 55 67.1 1 134.3.4 201.5.2 16.5 0 32.5-3.4 47.4-10.5 40.6-19.4 63.3-50.3 63.1-96.7-.4-71-.1-142-.1-213 0-20.1-5.7-38.5-17.6-54.7-23-31.1-54.8-46.4-92.8-46.8-67-.8-134-.3-201-.2-14.3 0-28.1 2.9-41.5 7.9-36.8 13.7-71 48.4-69.4 99.5 1.2 34.6.3 69.1.3 103.6z"/><path d="M257.6 363c-64.5 0-116.5-51.4-116.6-115.4-.1-63 52.3-114.6 116.4-114.6 64.3-.1 116.5 51.4 116.6 114.9 0 63.4-52.1 115-116.4 115.1zm0-37c43.9 0 79.5-35.1 79.4-78.3-.1-42.8-35.7-77.8-79.4-77.8-43.9 0-79.7 34.9-79.7 78 .1 43.2 35.8 78.2 79.7 78.1zM387.5 98c13.5 0 24.5 11.5 24.5 25.6-.1 14.1-11.2 25.5-24.7 25.4-13.3-.1-24.2-11.5-24.2-25.3C363 109.6 374 98 387.5 98z"/></svg><svg fill="none" viewBox="0 0 200 64" id="logo" xmlns="http://www.w3.org/2000/svg"><path d="M39.014 52.814s2.265.14 3.056 3.413c0 0 .233 2.312 1.8 2.545-1.117.232-1.582.698-1.66 1.132-1.117-1.226-1.458-2.73-1.598-3.6-.14-.977-1.38-2.497-1.38-2.497l-.218-.993Z" fill="#E5880E"/><path d="M34.499 50.518s4.53-.869 6.407 2.14c2.514 4.02 5.477 3.647 7.401 2.84-1.257 1.148-1.365 2.42-1.365 2.42s-4.5.047-6.346-3.118c-1.194-1.583-2.187-1.893-2.187-1.893l-3.91-2.39Z" fill="#E8AE08"/><path d="m34.422 50.285 2.373-8.75" stroke="#404936" stroke-width=".396" stroke-miterlimit="10"/><path d="M38.797 60.416h-11.62a.606.606 0 0 1-.606-.605V51h12.846v8.796c0 .342-.279.621-.62.621Z" fill="#61664A"/><path d="m22.569 40.573 7.648 10.162M44.025 40.573l-7.633 10.162M32.188 50.285l-2.374-8.75" stroke="#404936" stroke-width=".396" stroke-miterlimit="10"/><path d="M55.708 21.49c0 10.674-6.547 19.455-14.925 20.48C46.756 38.617 50.96 30.72 50.96 21.49c0-9.216-4.204-17.128-10.177-20.48 8.378 1.04 14.925 9.806 14.925 20.48ZM25.64 41.97c-8.377-1.025-14.925-9.806-14.925-20.48 0-10.674 6.548-19.455 14.925-20.48-5.973 3.352-10.177 11.264-10.177 20.48 0 9.231 4.204 17.128 10.178 20.48Z" fill="#404936"/><path d="M32.669 3.028c0-2.141-2.157-3.584-4.158-2.793-.559.217-1.117.481-1.66.791-5.973 3.351-10.178 11.264-10.178 20.48 0 9.215 4.205 17.128 10.178 20.479a16.27 16.27 0 0 0 1.66.791c1.986.791 4.158-.652 4.158-2.793V3.028Z" fill="#547147"/><path d="M28.123 48.129c-.854 2.265 4.515 2.994 4.515 2.994s-.202 2.824.418-.295c.621-3.118-1.24-5.446-1.877-5.725-.636-.31-2.203.745-3.056 3.026Zm3.708-.792c.543.543 1.132 2.622 1.132 2.622l-.186.59s-3.273-.993-2.839-1.846c.434-.854 1.365-1.909 1.893-1.366Z" fill="#E5880E"/><path d="M39.666 1.01a16.264 16.264 0 0 0-1.66-.79c-1.986-.792-4.158.651-4.158 2.792v36.956c0 2.14 2.156 3.584 4.158 2.793a12.455 12.455 0 0 0 1.66-.792c5.973-3.35 10.177-11.248 10.177-20.479 0-9.216-4.204-17.112-10.177-20.48Z" fill="#547147"/><path d="M33.615 51.65h-1.257v8.797h1.257V51.65Z" fill="#fff"/><path d="M39.428 56.196v-1.257H26.473v1.257h12.955Z" fill="#fff"/><path d="M34.763 44.98c-2.42-.218-1.66 5.15-1.66 5.15s-2.777.574.403.326c3.165-.248 4.903-2.669 5.011-3.351.11-.683-1.334-1.909-3.754-2.126Zm1.769 3.381c-.373.667-2.219 1.8-2.219 1.8l-.605-.016s.078-3.428 1.009-3.227c.93.187 2.187.776 1.815 1.443Z" fill="#E8AE08"/><path opacity=".64" d="m26.571 51.697 12.846-.016v.807l-12.846-.45v-.341Z" fill="#61664A"/><path opacity=".32" d="M33.025 64c5.836 0 10.566-.25 10.566-.559 0-.308-4.73-.558-10.566-.558-5.835 0-10.565.25-10.565.558 0 .309 4.73.559 10.565.559Z" fill="#506C44"/><path d="M39.697 51.697h-13.42a.344.344 0 0 1-.342-.341v-.962c0-.186.155-.342.342-.342h13.42c.186 0 .341.156.341.342v.962a.344.344 0 0 1-.341.34Z" fill="#3E432F"/><path d="M33.832 50.052h-1.66v1.645h1.66v-1.645Z" fill="#fff"/><path d="m50.727 42.574.187.854c.015.062.046.108.108.124l.807.326c.14.062.155.232.016.31l-.76.434a.226.226 0 0 0-.094.14l-.062.869c-.015.14-.186.217-.295.124l-.651-.574a.3.3 0 0 0-.155-.047l-.854.202a.179.179 0 0 1-.201-.248l.356-.807a.184.184 0 0 0-.015-.155l-.465-.745c-.078-.124.015-.28.17-.264l.869.094a.2.2 0 0 0 .155-.063l.559-.667c.124-.093.294-.046.325.093ZM15.168 44.234l.791.373c.047.03.109.015.171 0l.76-.435c.124-.077.28.031.264.171l-.109.869a.2.2 0 0 0 .062.155l.652.59c.109.093.062.279-.078.31l-.853.155c-.062.016-.108.047-.124.109l-.357.79c-.062.14-.248.14-.31.016l-.419-.76a.226.226 0 0 0-.14-.093l-.868-.093c-.14-.016-.202-.186-.109-.295l.605-.636c.047-.047.062-.093.047-.155l-.187-.853c-.077-.155.063-.28.202-.218ZM2.291 21.986l.062.87c0 .061.031.108.093.139l.76.45c.124.078.109.264-.015.31l-.807.326a.177.177 0 0 0-.109.124l-.186.853c-.03.14-.217.187-.31.078l-.559-.667c-.03-.047-.093-.062-.155-.062l-.868.077c-.14.016-.249-.14-.171-.263l.465-.745a.183.183 0 0 0 .016-.155l-.342-.807c-.062-.14.063-.28.202-.233l.853.218c.063.015.11 0 .156-.047l.651-.574c.078-.109.248-.031.264.108ZM59.26 12.073l.668.574c.046.03.108.046.155.03l.853-.216c.14-.031.264.108.202.232l-.341.807a.184.184 0 0 0 .015.155l.465.745c.078.124-.015.28-.17.264l-.87-.078a.199.199 0 0 0-.154.062l-.559.667c-.093.109-.279.062-.31-.077l-.202-.854c-.015-.062-.046-.108-.108-.124l-.807-.325c-.14-.047-.155-.233-.031-.31l.745-.45a.163.163 0 0 0 .077-.14l.047-.87c.046-.123.217-.185.325-.092Z" fill="#E8AE08"/><path opacity=".33" d="M49.92 21.49c0-.946-.046-1.877-.139-2.808-2.265 12.893-15.064 17.314-15.84 17.578v3.692c0 2.141 2.156 3.584 4.158 2.793a12.438 12.438 0 0 0 1.66-.791C45.732 38.618 49.92 30.72 49.92 21.49Z" fill="#547147"/><path opacity=".33" d="M55.63 23.507c-1.893 5.74-6.888 10.783-8.688 12.458-1.66 2.591-3.77 4.654-6.16 6.004 7.836-.962 14.072-8.719 14.848-18.462Z" fill="#404936"/><path opacity=".33" d="M32.762 28.301c-.156 1.986-1.505 5.446-5.896 6.485-4.375 1.04-8.455-4.344-8.859-4.887 1.66 5.446 4.903 9.82 8.952 12.086.543.295 1.086.558 1.66.791 1.986.791 4.158-.652 4.158-2.793V28.301h-.015Z" fill="#547147"/><path opacity=".33" d="M16.968 37.594c2.42 2.405 5.399 3.972 8.657 4.375-4.437-2.482-7.897-7.493-9.386-13.668.79 4.189.79 7.664.729 9.293Z" fill="#404936"/><path opacity=".39" d="M28.604.235c-.559.217-1.117.481-1.66.791-4.701 2.638-8.285 8.083-9.62 14.755 1.195-3.119 5.291-11.078 15.422-9.278V3.028C32.762.887 30.59-.556 28.604.235Z" fill="#547147"/><path opacity=".39" d="M25.64 1.01c-8.098.994-14.49 9.232-14.909 19.44 2.172-9.23 8.362-13.73 9.448-14.459 1.552-2.11 3.398-3.817 5.462-4.98Z" fill="#404936"/><path opacity=".39" d="M38.72 6.146c3.986-.946 6.469.683 8.067 2.343-1.769-3.274-4.205-5.88-7.028-7.478a16.256 16.256 0 0 0-1.66-.791C36.113-.572 33.94.87 33.94 3.012v10.441c.574-3.118 1.861-6.609 4.778-7.307Z" fill="#547147"/><path d="m50.2 14.819.015.03s-.015-.077-.062-.232c.016.078.032.14.047.202ZM48.556 4.564c-2.25-1.94-4.903-3.196-7.773-3.538 4.173 2.343 7.462 6.889 9.091 12.567-.558-2.203-1.582-6.656-1.319-9.03ZM92.073 38.121h.104c.59 0 1.215-.104 1.91-.347a6.887 6.887 0 0 0 2.394-1.388c1.98-1.597 2.951-3.958 2.951-7.117 0-2.117-.625-3.784-1.874-4.999-1.215-1.145-2.847-1.735-4.86-1.735-4.097 0-7.707 1.284-10.831 3.853a17.122 17.122 0 0 0-2.916 3.02c-.66.833-1.076 1.562-1.285 2.118 0 .034 0 .034-.034.034-.07 0-.174-.069-.313-.243-.173-.173-.382-.381-.555-.625-.486-.659-.764-1.215-.764-1.735 0-1.979 1.805-4.097 5.45-6.284 3.68-2.221 7.29-3.332 10.796-3.332 2.812 0 5.103.833 6.874 2.465 1.874 1.735 2.777 4.026 2.777 6.873 0 2.638-.798 5.034-2.395 7.117-1.736 2.29-3.923 3.471-6.561 3.471a7.187 7.187 0 0 1-2.291-.347l-.903-.486a4.146 4.146 0 0 1-.555-.278c0 .139 0 .278-.035.382l-.07.312c-.173.868-.52 1.459-1.076 1.806-.173.139-.382.208-.625.277l-.277.035h-.417l-.312-.035a2.397 2.397 0 0 1-.799-.312c-.59-.382-.798-1.041-.625-1.979.105-.555.382-1.041.868-1.493.313-.277.625-.486.938-.59.034-1.076.104-2.464.277-4.2l.174-2.291c.07-.834.07-1.632.07-2.36 0-.591-.035-1.112-.07-1.563-.104-.66-.278-1.146-.486-1.493h.59l.625.035c.486.07.902.208 1.25.347.937.451 1.423 1.285 1.423 2.569 0 .07-.07.52-.209 1.32l-.104.59-.104.624c-.104.556-.173 1.042-.243 1.458-.382 2.118-.59 3.75-.66 4.93.348.66 1.285 1.18 2.778 1.596Zm-5.069 2.083c.07-.243.14-.902.243-2.048-.59.07-.972.347-1.076.903-.07.382 0 .66.243.868l.313.208c.07.07.139.07.208.07h.07ZM104.987 38.573c-.695 0-1.25-.174-1.701-.556-.486-.382-.695-.902-.695-1.562 0-.833.382-1.597 1.181-2.291.798-.694 1.735-1.076 2.846-1.076.104 0 .208 0 .347.035l.104.034h.174c.139 0 .208-.104.208-.277 0-.66-.451-1.007-1.388-1.111-.382-.035-.764 0-1.181.034-.381.07-.694.105-.937.209-.104.07-.208.034-.312-.035a.559.559 0 0 1-.174-.382c0-.59.139-1.076.382-1.423.382-.486.972-.695 1.805-.695h.556c.243.035.451.07.659.07.556.07 1.042.208 1.493.382 1.145.52 1.736 1.388 1.736 2.638-.035.313-.07.73-.07 1.25 0 .694 0 1.319.035 1.91.139 1.665.451 2.603.937 2.846v.173c0 .07 0 .104-.035.104-.069.105-.277.174-.59.174-.173 0-.312-.035-.486-.07a1.938 1.938 0 0 1-.59-.312c-.521-.382-.902-1.041-1.111-1.91-.763 1.216-1.84 1.84-3.193 1.84Zm1.319-1.701c.277 0 .555-.07.868-.243.347-.174.59-.417.763-.66-.069-.104-.104-.278-.104-.486v-.625c-.035-.52-.139-.798-.312-.798-.452 0-.903.208-1.319.66-.452.45-.66.867-.66 1.284-.069.59.208.868.764.868Z" fill="#404936"/><path d="M117.9 30.658c1.146.972 1.736 2.187 1.736 3.68 0 1.006-.278 1.909-.868 2.707-.625.938-1.458 1.424-2.499 1.424-1.181 0-2.083-.417-2.708-1.25a38.104 38.104 0 0 0-.312 3.194c-.07.416-.07.798-.07 1.18-.035.278-.035.486-.035.59 0 .174 0 .347.035.486.07.208.139.382.278.52-.59.278-1.146.209-1.736-.173-.59-.382-.868-.868-.833-1.458l.069-1.458.07-1.423a65.26 65.26 0 0 0 .208-5.103v-.382l-.069-.486c-.07-.382-.174-.66-.313-.833h.278l.208-.035h.209c.416 0 .763.035 1.076.07.902.208 1.388.763 1.388 1.7 0 .209 0 .382-.034.487l-.035.242-.035.313c-.035.243-.069.451-.069.66.069.416.277.798.59 1.11.382.382.764.556 1.215.556.486 0 .902-.278 1.25-.833.277-.486.381-1.007.381-1.597 0-.868-.381-1.666-1.11-2.395-.764-.799-1.597-1.111-2.569-.938l-.347.104-.278.105a1.71 1.71 0 0 1-.521.104c-.035 0-.069 0-.173-.035a2.31 2.31 0 0 1-.278-.104c-.208-.139-.313-.313-.313-.52 0-.418.209-.765.591-1.077.486-.313 1.11-.486 1.874-.486 1.423.035 2.673.451 3.749 1.354ZM128.558 38.99l-.521.034c-.417 0-.764-.035-1.076-.104-.799-.174-1.25-.694-1.285-1.562-1.215 1.215-2.395 1.805-3.54 1.805h-.348a1.222 1.222 0 0 1-.486-.208c-.416-.313-.59-.972-.52-1.98.104-.867.173-1.561.208-2.047.104-1.076.174-1.805.174-2.257 0-.66-.035-1.215-.105-1.735a6.972 6.972 0 0 0-.243-1.007l-.104-.313-.104-.243c-.069-.173-.104-.277-.104-.347 0-.173.104-.277.347-.277.59 0 1.18.277 1.736.833.625.625.937 1.458.937 2.464 0 1.77 0 2.951.035 3.541.035.66.104.972.278.972.243 0 .624-.312 1.215-.902.243-.209.486-.452.694-.695.173-.243.347-.416.486-.59.173-.763.278-1.562.382-2.36.104-.764.173-1.285.173-1.528 0-.173 0-.347-.034-.52-.07-.209-.139-.382-.278-.521.59-.313 1.145-.313 1.736 0 .59.347.867.902.833 1.666 0 .174-.035.417-.07.764l-.034.52-.035.521c-.07.903-.139 1.701-.174 2.36-.104 2.014 0 3.264.347 3.75h-.52v-.035ZM148.796 38.121h.104c.59 0 1.215-.104 1.91-.347a6.889 6.889 0 0 0 2.395-1.388c1.979-1.597 2.951-3.958 2.951-7.117 0-2.117-.625-3.784-1.875-4.999-1.215-1.145-2.846-1.735-4.86-1.735-4.096 0-7.707 1.284-10.831 3.853a17.108 17.108 0 0 0-2.916 3.02c-.659.833-1.076 1.562-1.284 2.118 0 .034 0 .034-.035.034-.069 0-.174-.069-.312-.243a5.039 5.039 0 0 1-.556-.625c-.486-.659-.764-1.215-.764-1.735 0-1.979 1.806-4.097 5.451-6.284 3.679-2.221 7.29-3.332 10.796-3.332 2.812 0 5.103.833 6.873 2.465 1.875 1.735 2.777 4.026 2.777 6.873 0 2.638-.798 5.034-2.395 7.117-1.736 2.29-3.923 3.471-6.561 3.471a7.188 7.188 0 0 1-2.291-.347l-.903-.486a4.141 4.141 0 0 1-.555-.278c0 .139 0 .278-.035.382l-.069.312c-.174.868-.521 1.459-1.076 1.806-.174.139-.382.208-.625.277l-.278.035h-.486l-.312-.035a2.393 2.393 0 0 1-.799-.312c-.59-.382-.798-1.041-.625-1.979.104-.555.382-1.041.868-1.493.313-.277.625-.486.937-.59.035-1.076.105-2.464.278-4.2l.174-2.291c.069-.834.069-1.632.069-2.36 0-.591-.035-1.112-.069-1.563-.104-.66-.278-1.146-.486-1.493h.59l.625.035c.486.07.902.208 1.249.347.938.451 1.424 1.285 1.424 2.569 0 .07-.07.52-.209 1.32l-.104.59-.104.624c-.104.556-.173 1.042-.243 1.458-.382 2.118-.59 3.75-.659 4.93.416.66 1.353 1.18 2.846 1.596Zm-5.068 2.083c.069-.243.139-.902.243-2.048-.59.07-.972.347-1.076.903-.07.382 0 .66.243.868l.312.208c.07.07.139.07.208.07h.07ZM164.557 38.99c.034-.417.069-.8.104-1.112-.799.695-1.667 1.007-2.5 1.007-1.562 0-2.395-1.11-2.569-3.298-.069-.694-.069-1.597 0-2.777l.07-.66.035-.624c.034-.486.034-.834.034-1.111 0-.347 0-.59-.034-.764-.07-.486-.139-.833-.243-1.11h.347l.486-.035c.416 0 .763.034 1.076.104.833.208 1.25.729 1.25 1.562-.07.382-.174.764-.243 1.215l-.105.59-.069.59c-.278 1.354-.417 2.604-.417 3.784 0 .625.209.937.591.937.798 0 1.423-.416 1.874-1.215.382-.694.556-1.562.556-2.5v-.381l-.07-.486c-.069-.382-.173-.694-.312-.868h.382l.486-.035c.416 0 .763.035 1.006.104.799.209 1.215.764 1.215 1.667.07.173 0 .729-.104 1.736l-.069.694-.104.555-.035.382-.07.798c.348-.173.66-.347.972-.555.243-.139.486-.278.764-.486l.625-.382c.069.07.104.174.104.313 0 .382-.868 1.215-2.638 2.43l-.104.937-.104.937c-.07.694-.139 1.389-.209 2.014a4.303 4.303 0 0 1-.312 1.319c-.382.868-.972 1.284-1.771 1.284-.694 0-1.284-.347-1.839-1.006-.486-.66-.764-1.32-.764-2.049 0-.902.382-1.735 1.145-2.43.278-.277.556-.486.903-.694.139-.07.278-.173.417-.243l.208-.104.035-.035Zm-.174 3.054.069-.59.07-.66c-.59.486-.903.972-.903 1.493 0 .382.209.694.59.972.07-.312.139-.694.174-1.215Z" fill="#404936"/><path d="M168.826 35.76c.174-1.318.243-2.394.243-3.262 0-.521-.034-1.007-.104-1.424a6.308 6.308 0 0 0-.277-.867l-.174-.278-.104-.243c-.07-.174-.104-.278-.104-.313 0-.173.139-.277.416-.277.59 0 1.146.243 1.736.763.66.625.972 1.424.972 2.396l-.243 4.096c0 .104 0 .208.035.278.069.208.139.312.277.312.278 0 .764-.382 1.458-1.11.625-.695 1.007-1.181 1.111-1.528.07-.625.104-1.25.104-1.875 0-.902-.138-1.631-.381-2.256l-.174-.278-.104-.243c-.07-.139-.104-.208-.104-.278 0-.173.139-.277.416-.277.59 0 1.146.243 1.736.763.66.625.972 1.424.972 2.396l-.243 4.096v.104l.035.208c.069.174.208.278.382.278h.104l.173-.07c.174-.069.313-.138.521-.277.486-.382.972-1.041 1.458-1.979.278-.798.417-1.597.521-2.43v-1.353c0-.174 0-.348-.035-.521-.069-.209-.139-.382-.278-.521l.07-.035.173-.034c.07-.035.313-.035.695-.035.381 0 .729.173 1.076.486.382.382.555.798.555 1.284.035.347 0 .938-.069 1.77l-.035.556-.035.59-.104 1.215c-.139 2.014-.035 3.263.313 3.75h-.903c-.694 0-1.215-.105-1.562-.278-.486-.243-.799-.66-.868-1.285-1.215 1.215-2.326 1.806-3.367 1.806h-.104l-.174-.035a.925.925 0 0 1-.486-.243c-.382-.347-.59-1.007-.59-1.979-.59.66-1.146 1.146-1.666 1.493-.729.486-1.458.764-2.118.764-.903.069-1.354-.66-1.319-2.118.035-.73.139-1.32.173-1.701ZM187.85 29.373c.764 0 1.389.417 1.875 1.25.451.73.659 1.528.659 2.395 0 2.396-.59 4.027-1.805 4.93a3.582 3.582 0 0 1-1.389.59c-.173.035-.381.07-.555.07h-.347c-1.042 0-1.91-.452-2.604-1.32-.625-.798-.937-1.805-.937-2.95 0-1.32.382-2.535 1.145-3.61.278-.452.66-.869 1.146-1.285.208-.209.486-.209.868 0 .347.173.59.416.694.764.313-.59.695-.834 1.25-.834Zm1.146 3.784c0 .278-.105.486-.278.625a.753.753 0 0 1-.486.174c-.694 0-1.215-.313-1.562-.938-.139-.243-.209-.486-.278-.763-.069-.243-.069-.452-.069-.625-.73.729-1.111 1.666-1.111 2.777v.208c0 .14 0 .243.034.347a3.5 3.5 0 0 0 .209.868c.277.764.798 1.111 1.562 1.007h.035l.069-.035a.658.658 0 0 0 .278-.07c.277-.103.52-.277.763-.52.695-.729 1.077-1.874 1.077-3.471 0-.556-.035-.972-.105-1.285-.138-.382-.312-.625-.59-.66a.418.418 0 0 0-.416.278c-.07.174-.104.348-.07.59.07.59.243.868.59.868.209.105.348.313.348.625ZM199.479 38.99l-.52.034a4.92 4.92 0 0 1-1.077-.104c-.798-.174-1.249-.694-1.284-1.562-1.215 1.215-2.395 1.805-3.541 1.805h-.347a1.217 1.217 0 0 1-.486-.208c-.417-.313-.59-.972-.521-1.98.104-.867.174-1.561.209-2.047.104-1.076.173-1.805.173-2.257 0-.66-.035-1.215-.104-1.735a7.106 7.106 0 0 0-.243-1.007l-.104-.313-.104-.243c-.07-.173-.104-.277-.104-.347 0-.173.104-.277.347-.277.59 0 1.18.277 1.735.833.625.624.938 1.458.938 2.464 0 1.77 0 2.951.034 3.541.035.66.105.972.278.972.243 0 .625-.312 1.215-.902.243-.209.486-.452.694-.695.174-.243.348-.416.486-.59.174-.764.278-1.562.382-2.36.104-.764.174-1.285.174-1.528 0-.173 0-.347-.035-.52-.069-.209-.139-.382-.278-.521.591-.313 1.146-.313 1.736 0 .59.347.868.902.833 1.666 0 .174-.034.417-.069.764l-.035.52-.035.521c-.069.903-.138 1.701-.173 2.36-.104 2.014 0 3.264.347 3.75h-.521v-.035Zm-1.77-11.352c-.417.347-.868.52-1.389.52-.486 0-.972-.173-1.492-.486l-.278-.173-.278-.174c-.208-.104-.382-.173-.555-.173-.174 0-.347.07-.521.243-.069.07-.104.104-.104.173l-.035.035v.035c-.278 0-.382-.105-.382-.348 0-.66.452-1.006 1.319-1.006.278-.035.625 0 1.077.035l.486.034c.173.035.312.035.381.035.105 0 .209 0 .313-.035.139-.07.278-.139.382-.243.312-.243.52-.625.59-1.18l.035.035c.069 0 .104.034.173.07.139.103.243.207.347.311.174.174.313.348.382.521.104.174.174.382.174.556 0 .486-.209.868-.625 1.215Z" fill="#404936"/></svg><svg fill="none" viewBox="0 0 62 64" id="mini-logo" xmlns="http://www.w3.org/2000/svg"><path d="M39.014 52.814s2.265.14 3.056 3.413c0 0 .233 2.312 1.8 2.545-1.117.232-1.582.698-1.66 1.132-1.117-1.226-1.458-2.73-1.598-3.6-.14-.977-1.38-2.497-1.38-2.497l-.218-.993Z" fill="#E5880E"/><path d="M34.499 50.518s4.53-.869 6.407 2.14c2.514 4.02 5.477 3.647 7.401 2.84-1.257 1.148-1.365 2.42-1.365 2.42s-4.5.047-6.346-3.118c-1.194-1.583-2.187-1.893-2.187-1.893l-3.91-2.39Z" fill="#E8AE08"/><path d="m34.422 50.285 2.373-8.75" stroke="#404936" stroke-width=".396" stroke-miterlimit="10"/><path d="M38.797 60.416h-11.62a.606.606 0 0 1-.606-.605V51h12.846v8.796c0 .342-.279.621-.62.621Z" fill="#61664A"/><path d="m22.569 40.573 7.648 10.162M44.025 40.573l-7.633 10.162M32.188 50.285l-2.374-8.75" stroke="#404936" stroke-width=".396" stroke-miterlimit="10"/><path d="M55.708 21.49c0 10.674-6.547 19.455-14.925 20.48C46.756 38.617 50.96 30.72 50.96 21.49c0-9.216-4.204-17.128-10.177-20.48 8.378 1.04 14.925 9.806 14.925 20.48ZM25.64 41.97c-8.377-1.025-14.925-9.806-14.925-20.48 0-10.674 6.548-19.455 14.925-20.48-5.973 3.352-10.177 11.264-10.177 20.48 0 9.231 4.204 17.128 10.178 20.48Z" fill="#404936"/><path d="M32.669 3.028c0-2.141-2.157-3.584-4.158-2.793-.559.217-1.117.481-1.66.791-5.973 3.351-10.178 11.264-10.178 20.48 0 9.215 4.205 17.128 10.178 20.479a16.27 16.27 0 0 0 1.66.791c1.986.791 4.158-.652 4.158-2.793V3.028Z" fill="#547147"/><path d="M28.123 48.129c-.854 2.265 4.515 2.994 4.515 2.994s-.202 2.824.418-.295c.621-3.118-1.24-5.446-1.877-5.725-.636-.31-2.203.745-3.056 3.026Zm3.708-.792c.543.543 1.132 2.622 1.132 2.622l-.186.59s-3.273-.993-2.839-1.846c.434-.854 1.365-1.909 1.893-1.366Z" fill="#E5880E"/><path d="M39.666 1.01a16.264 16.264 0 0 0-1.66-.79c-1.986-.792-4.158.651-4.158 2.792v36.956c0 2.14 2.156 3.584 4.158 2.793a12.455 12.455 0 0 0 1.66-.792c5.973-3.35 10.177-11.248 10.177-20.479 0-9.216-4.204-17.112-10.177-20.48Z" fill="#547147"/><path d="M33.615 51.65h-1.257v8.797h1.257V51.65Z" fill="#fff"/><path d="M39.428 56.196v-1.257H26.473v1.257h12.955Z" fill="#fff"/><path d="M34.763 44.98c-2.42-.218-1.66 5.15-1.66 5.15s-2.777.574.403.326c3.165-.248 4.903-2.669 5.011-3.351.11-.683-1.334-1.909-3.754-2.126Zm1.769 3.381c-.373.667-2.219 1.8-2.219 1.8l-.605-.016s.078-3.428 1.009-3.227c.93.187 2.187.776 1.815 1.443Z" fill="#E8AE08"/><path opacity=".64" d="m26.571 51.697 12.846-.016v.807l-12.846-.45v-.341Z" fill="#61664A"/><path opacity=".32" d="M33.025 64c5.836 0 10.566-.25 10.566-.559 0-.308-4.73-.558-10.566-.558-5.835 0-10.565.25-10.565.558 0 .309 4.73.559 10.565.559Z" fill="#506C44"/><path d="M39.697 51.697h-13.42a.344.344 0 0 1-.342-.341v-.962c0-.186.155-.342.342-.342h13.42c.186 0 .341.156.341.342v.962a.344.344 0 0 1-.341.34Z" fill="#3E432F"/><path d="M33.832 50.052h-1.66v1.645h1.66v-1.645Z" fill="#fff"/><path d="m50.727 42.574.187.854c.015.062.046.108.108.124l.807.326c.14.062.155.232.016.31l-.76.434a.226.226 0 0 0-.094.14l-.062.869c-.015.14-.186.217-.295.124l-.651-.574a.3.3 0 0 0-.155-.047l-.854.202a.179.179 0 0 1-.201-.248l.356-.807a.184.184 0 0 0-.015-.155l-.465-.745c-.078-.124.015-.28.17-.264l.869.094a.2.2 0 0 0 .155-.063l.559-.667c.124-.093.294-.046.325.093ZM15.168 44.234l.791.373c.047.03.109.015.171 0l.76-.435c.124-.077.28.031.264.171l-.109.869a.2.2 0 0 0 .062.155l.652.59c.109.093.062.279-.078.31l-.853.155c-.062.016-.108.047-.124.109l-.357.79c-.062.14-.248.14-.31.016l-.419-.76a.226.226 0 0 0-.14-.093l-.868-.093c-.14-.016-.202-.186-.109-.295l.605-.636c.047-.047.062-.093.047-.155l-.187-.853c-.077-.155.063-.28.202-.218ZM2.291 21.986l.062.87c0 .061.031.108.093.139l.76.45c.124.078.109.264-.015.31l-.807.326a.177.177 0 0 0-.109.124l-.186.853c-.03.14-.217.187-.31.078l-.559-.667c-.03-.047-.093-.062-.155-.062l-.868.077c-.14.016-.249-.14-.171-.263l.465-.745a.183.183 0 0 0 .016-.155l-.342-.807c-.062-.14.063-.28.202-.233l.853.218c.063.015.11 0 .156-.047l.651-.574c.078-.109.248-.031.264.108ZM59.26 12.073l.668.574c.046.03.108.046.155.03l.853-.216c.14-.031.264.108.202.232l-.341.807a.184.184 0 0 0 .015.155l.465.745c.078.124-.015.28-.17.264l-.87-.078a.199.199 0 0 0-.154.062l-.559.667c-.093.109-.279.062-.31-.077l-.202-.854c-.015-.062-.046-.108-.108-.124l-.807-.325c-.14-.047-.155-.233-.031-.31l.745-.45a.163.163 0 0 0 .077-.14l.047-.87c.046-.123.217-.185.325-.092Z" fill="#E8AE08"/><path opacity=".33" d="M49.92 21.49c0-.946-.046-1.877-.139-2.808-2.265 12.893-15.064 17.314-15.84 17.578v3.692c0 2.141 2.156 3.584 4.158 2.793a12.438 12.438 0 0 0 1.66-.791C45.732 38.618 49.92 30.72 49.92 21.49Z" fill="#547147"/><path opacity=".33" d="M55.63 23.507c-1.893 5.74-6.888 10.783-8.688 12.458-1.66 2.591-3.77 4.654-6.16 6.004 7.836-.962 14.072-8.719 14.848-18.462Z" fill="#404936"/><path opacity=".33" d="M32.762 28.301c-.156 1.986-1.505 5.446-5.896 6.485-4.375 1.04-8.455-4.344-8.859-4.887 1.66 5.446 4.903 9.82 8.952 12.086.543.295 1.086.558 1.66.791 1.986.791 4.158-.652 4.158-2.793V28.301h-.015Z" fill="#547147"/><path opacity=".33" d="M16.968 37.594c2.42 2.405 5.399 3.972 8.657 4.375-4.437-2.482-7.897-7.493-9.386-13.668.79 4.189.79 7.664.729 9.293Z" fill="#404936"/><path opacity=".39" d="M28.604.235c-.559.217-1.117.481-1.66.791-4.701 2.638-8.285 8.083-9.62 14.755 1.195-3.119 5.291-11.078 15.422-9.278V3.028C32.762.887 30.59-.556 28.604.235Z" fill="#547147"/><path opacity=".39" d="M25.64 1.01c-8.098.994-14.49 9.232-14.909 19.44 2.172-9.23 8.362-13.73 9.448-14.459 1.552-2.11 3.398-3.817 5.462-4.98Z" fill="#404936"/><path opacity=".39" d="M38.72 6.146c3.986-.946 6.469.683 8.067 2.343-1.769-3.274-4.205-5.88-7.028-7.478a16.256 16.256 0 0 0-1.66-.791C36.113-.572 33.94.87 33.94 3.012v10.441c.574-3.118 1.861-6.609 4.778-7.307Z" fill="#547147"/><path d="m50.2 14.819.015.03s-.015-.077-.062-.232c.016.078.032.14.047.202ZM48.556 4.564c-2.25-1.94-4.903-3.196-7.773-3.538 4.173 2.343 7.462 6.889 9.091 12.567-.558-2.203-1.582-6.656-1.319-9.03Z" fill="#404936"/></svg><svg aria-hidden="true" viewBox="0 0 14 14" id="vk" xmlns="http://www.w3.org/2000/svg"><path d="M6.85 10.385h.719s.216-.023.327-.142C8 10.133 8 9.928 8 9.928s-.016-.963.434-1.105c.444-.14 1.006.93 1.606 1.342.458.314.802.247.802.247l1.606-.022s.84-.053.443-.713c-.03-.053-.225-.488-1.185-1.38-1.006-.93-.871-.78.338-2.394.734-.982 1.035-1.583.937-1.838-.083-.24-.63-.18-.63-.18l-1.8.015s-.136-.015-.233.045c-.098.06-.157.196-.157.196s-.286.764-.668 1.41C8.682 6.915 8.36 6.99 8.232 6.9c-.302-.196-.224-.79-.224-1.217 0-1.32.202-1.875-.39-2.017-.196-.046-.341-.075-.843-.083-.645-.007-1.19.005-1.498.155-.202.102-.36.326-.27.338.12.015.39.073.533.268.187.253.18.818.18.818s.105 1.558-.248 1.752c-.247.13-.577-.14-1.297-1.378-.368-.63-.646-1.335-.646-1.335s-.052-.128-.15-.203c-.113-.083-.278-.113-.278-.113l-1.717.015s-.255.008-.345.12c-.083.098-.008.308-.008.308s1.343 3.143 2.866 4.726c1.395 1.451 2.978 1.358 2.978 1.358l-.025-.028z"/></svg></svg>